/* XPM */
static char *noname[] = {
/* width height ncolors chars_per_pixel */
"32 32 342 2",
/* colors */
"   c #A2AAC3",
" . c #B6BDD0",
" X c #7782A6",
" o c #4D5C8A",
" O c #38497C",
" + c #CACEDD",
" @ c #616F97",
" # c #4C5A89",
" $ c #DDE1E9",
" % c #606D96",
" & c #4B5A88",
" * c #DDDFE9",
" = c #C8CCDB",
" - c #9EA6BF",
" ; c #5F6D95",
" : c #DCDFE8",
" > c #C7CCDA",
" , c #4A5887",
" < c #DBDDE7",
" 1 c #B1B7CB",
" 2 c #9CA4BD",
" 3 c #C5CAD8",
" 4 c #B0B7CA",
" 5 c #C5C8D8",
" 6 c #717CA0",
" 7 c #6F7A9E",
" 8 c #ECEEF4",
" 9 c #C1C8D7",
" 0 c #EAECF2",
" q c #D5D9E4",
" w c #586591",
" e c #435283",
" r c #E9ECF1",
" t c #6C789E",
" y c #E9EAF1",
" u c #BFC4D5",
" i c #959EB9",
" p c #FDFDFE",
" a c #E8EAF0",
" s c #D3D7E2",
" d c #BEC4D4",
" f c #8089AB",
" g c #6B769D",
" h c #FCFDFD",
" j c #E7EAEF",
" k c #6A769C",
" l c #939CB7",
" z c #69749B",
" x c #68749A",
" c c #68729A",
" v c #66749B",
" b c #E3E6EE",
" n c #8F98B6",
" m c #65729A",
" M c #8E98B5",
" N c #647299",
" B c #E1E4EC",
" V c #3A4A7D",
" C c #8D96B4",
" Z c #7883A6",
" A c #637098",
" S c #394A7C",
" D c #CBCFDD",
" F c #B6BCCF",
" G c #7783A5",
" H c #627097",
" J c #7781A5",
" K c #4D5B89",
" L c #7681A4",
" P c #616E96",
" I c #DEE0E9",
" U c #C9CDDB",
" Y c #B4BACD",
" T c #C8CDDA",
" R c #B3BACC",
" E c #475786",
" W c #AFB6CB",
" Q c #707DA1",
" ! c #C3C9D8",
" ~ c #314277",
" ^ c #848EAE",
" / c #98A1BB",
" ( c #838EAD",
" ) c #596691",
" _ c #ACB2C8",
" ` c #586690",
" ' c #D5D8E3",
" ] c #C0C5D5",
" [ c #ABB2C7",
" { c #969FB9",
" } c #6B779C",
" | c #D3D6E1",
".  c #7F88A9",
".. c #6A759B",
".X c #55628D",
".o c #6A779E",
".O c #54628F",
".+ c #68759C",
".@ c #53628E",
".# c #9099B6",
".$ c #A4ACC3",
".% c #F7F8FA",
".& c #E2E5EC",
".* c #657199",
".= c #CDD0DE",
".- c #8E97B4",
".; c #647198",
".: c #E1E3EB",
".> c #CCD0DD",
"., c #B7BDCF",
".< c #7882A5",
".1 c #636F97",
".2 c #DFE1E9",
".3 c #7682A6",
".4 c #C8CEDC",
".5 c #36477B",
".6 c #C7CCDB",
".7 c #9DA6BF",
".8 c #DBDFE8",
".9 c #5E6B95",
".0 c #B1B7CC",
".q c #C5CAD9",
".w c #B0B7CB",
".e c #485686",
".r c #D9DDE6",
".t c #717CA1",
".y c #475685",
".u c #9AA2BC",
".i c #D8DBE5",
".p c #C3C8D7",
".a c #5A6791",
".s c #6E7A9E",
".d c #D6D9E3",
".f c #C1C6D5",
".g c #6D7A9D",
".h c #6E789E",
".j c #6D789D",
".k c #6D7AA0",
".l c #6C789F",
".z c #6B789E",
".x c #D3D7E3",
".c c #BEC4D5",
".v c #55638F",
".b c #A8AFC6",
".n c #939CB8",
".m c #69769C",
".M c #54638E",
".N c #E6E8EF",
".B c #D1D5E1",
".V c #BCC2D3",
".C c #FAFBFC",
".Z c #68749B",
".A c #53618D",
".S c #BBC0D2",
".D c #A6ADC4",
".F c #67749A",
".G c #E4E6ED",
".H c #CFD3DF",
".J c #CED3DE",
".K c #667299",
".L c #CED1DE",
".P c #8F98B4",
".I c #647097",
".U c #8E98B6",
".Y c #394A7D",
".T c #A1A9C2",
".R c #7783A6",
".E c #CACFDD",
".W c #B5BCCF",
".Q c #617097",
".! c #38487C",
".~ c #7681A5",
".^ c #606E96",
"./ c #F2F3F7",
".( c #B3BACD",
".) c #5F6C95",
"._ c #4A5987",
".` c #C7CBDA",
".' c #737FA2",
".] c #F0F1F5",
".[ c #C6CBD9",
".{ c #495786",
".} c #727DA1",
".| c #EEEFF3",
"X  c #6F7B9E",
"X. c #6F7BA1",
"XX c #ADB4CA",
"Xo c #D6DAE5",
"XO c #C1C7D7",
"X+ c #6D799F",
"X@ c #586691",
"X# c #435383",
"X$ c #ABB2C8",
"X% c #576690",
"X& c #D4D8E3",
"X* c #6B779D",
"X= c #D3D6E2",
"X- c #6A779C",
"X; c #FCFCFD",
"X: c #E7E9EF",
"X> c #D2D6E1",
"X, c #BDC3D3",
"X< c #6A759C",
"X1 c #7E88A9",
"X2 c #69759B",
"X3 c #D1D4E0",
"X4 c #E5E7ED",
"X5 c #BCBFD2",
"X6 c #68739A",
"X7 c #E3E5EE",
"X8 c #A4ACC4",
"X9 c #CDD2DF",
"X0 c #B8BFD1",
"Xq c #8E97B5",
"Xw c #7984A7",
"Xe c #647199",
"Xr c #4F5E8B",
"Xt c #3A4B7D",
"Xy c #E1E3EC",
"Xu c #B7BDD0",
"Xi c #A2AAC2",
"Xp c #8D97B4",
"Xa c #637198",
"Xs c #E0E3EB",
"Xd c #CBD0DD",
"Xf c #39497C",
"Xg c #CBCEDD",
"Xh c #7782A5",
"Xj c #DFE1EA",
"Xk c #CACEDC",
"Xl c #B5BBCE",
"Xz c #7682A4",
"Xx c #DEE1E9",
"Xc c #C9CEDB",
"Xv c #4C5A88",
"Xb c #9FA6BF",
"Xn c #DDDFE8",
"Xm c #C5CADA",
"XM c #B0B7CC",
"XN c #EEF0F5",
"XB c #AFB7CB",
"XV c #858FAF",
"XC c #707CA1",
"XZ c #D8DBE6",
"XA c #AEB5CA",
"XS c #848FAE",
"XD c #6F7CA0",
"XF c #ECEEF3",
"XG c #6F7AA0",
"XH c #5A6792",
"XJ c #596791",
"XK c #EBECF2",
"XL c #D6D9E4",
"XP c #C1C6D6",
"XI c #ACB3C8",
"XU c #FFFFFF",
"XY c #EAECF1",
"XT c #6D789E",
"XR c #435282",
"XE c #D4D7E2",
"XW c #AAB1C6",
"XQ c #6B769C",
"X! c #69749A",
"X~ c #6A769E",
"X^ c #54638F",
"X/ c #E5E8EF",
"X( c #BBC2D3",
"X) c #A6AFC5",
"X_ c #68749C",
"X` c #53618E",
"X' c #A6ADC5",
"X] c #3D4E7F",
"X[ c #BAC0D2",
"X{ c #CED3DF",
"X} c #66729A",
"X| c #B9BED1",
"o  c #8F98B5",
"o. c #7A85A7",
"oX c #3B4C7D",
"oo c #B8BED0",
"oO c #8E96B4",
"o+ c #647098",
"o@ c #3A4A7C",
"o# c #B7BCCF",
"o$ c #A2A9C1",
"o% c #7883A5",
"o& c #B4BACF",
"o* c #7581A5",
"o= c #B3B8CE",
"o- c #F0F3F6",
"o; c #5E6C95",
"o: c #DBDEE8",
"o> c #B1B8CC",
"o, c #9CA5BE",
"o< c #495787",
"o1 c #DADEE7",
"o2 c #485786",
"o3 c #C5C9D9",
"o4 c #B0B6CB",
"o5 c #8690AF",
"o6 c #717DA1",
"o7 c #D9DCE6",
"o8 c #C4C9D8",
"o9 c #AFB6CA",
"o0 c #707DA0",
"oq c #475585",
"ow c #EDEFF3",
"oe c #707BA0",
"or c #D8DAE5",
"ot c #C3C7D7",
"oy c #AEB4C9",
"ou c #D7DAE4",
"oi c #D6D8E3",
"op c #ACB2C7",
"oa c #6D779D",
"os c #6C799F",
"od c #AAB2C8",
"of c #808AAC",
"og c #6B779E",
"oh c #566490",
"oj c #A9B0C7",
"ok c #7F8AAB",
"ol c #D2D6E2",
"oz c #BDC3D4",
"ox c #FBFCFD",
"oc c #939BB8",
"ov c #69759C",
"ob c #D1D4E1",
"on c #A7AEC5",
"om c #68759B",
"oM c #E5E7EE",
"oN c #D0D4E0",
"oB c #67739A",
"oV c #CFD2DF",
"oC c #BABFD1",
"oZ c #9099B5",
"oA c #51608B",
"oS c #E3E5EC",
"oD c #B9BFD0",
"oF c #8F99B4",
"oG c #667199",
"oH c None",
/* pixels */
"oHX^X6 g gXQ kX<X<.. k.movovX2X2 z z zX! x.Z.Z.Z.FoBoBoBoB.1.XoH",
"X%X9./o-.]XNowXFXK r yX:X/oMX7.&.:Xs.2 I :o:o1o7orXooiX&XEol 1.v",
"XG./o-.]XNow 8XK r yX:X/oMX7.&.:Xs.2 I :o:o1o7.iXooiX&XEoloNoNX}",
".}o-.]XNow 8XK r yX:X/oM boSXyXs.2 I :o:o1o7.iXooiX&X=oloNoNX{X<",
"o6.]XNX,.).)o;.9.).EoM boSok N.;XaXa A H H.Q @ P.^.^.^ ;X8X{X9ov",
".tXNow.U ~ ~ ~ ~ O.0 boSXy E ~ ~ ~ ~ ~ ~ ~ ~ ~ ~ ~ ~ ~ ~XzX9.>X2",
".t.| 8 n ~ ~ ~ ~ VXMoSXyXs.{ ~X@ i i i i i i i i i iX` ~.R.> DX2",
" 6 8XKo  ~ ~ ~ ~ V 1XyXsXj.{ ~XIXUXUXUXUXUXUXUXUXUXUXb ~Xh DXkX2",
"XCXKXYoZ ~ ~ ~ ~.Yo4XsXj $.{ ~XIXUXUXUXUXUXUXUXUXUXUXb ~XhXk Uom",
"XC 0 aoF ~ ~ ~ ~o@.wXj $ :.{ ~ ^XjXjXjXjXjXjXj.%XUXUXb ~Xh U T x",
"XC a j n ~ ~ ~ ~Xto4 $Xno:.{ ~ ~ ~ ~ ~ ~ ~ ~ ~XjXUXUXb ~.< T.`.Z",
"XD j.No  ~ ~ ~ ~.5X# e eXRX] ~ o L L L L L L LXYXUXUXb ~Xh.`.q.Z",
"oe.NX4Xq ~ ~ ~ ~ ~ ~ ~ ~ ~ ~ ~X$ox.C.C.C.C.C.CX;XUXUXb ~ GXmo3 v",
"oeX4 b.P ~ ~ ~ ~ ~ ~ ~ ~ ~ ~ ~XIXUXUXUXUXUXUXUXUXUXUXb ~ Xo3 !X}",
"X  boS.- ~ ~ ~ ~ ~ ~ ~ ~ ~ ~ ~XIXUXU.]o>o>o>o>o>o>o> A ~ J !otX}",
" 7oS B M ~ ~ ~ ~ ~ ~ ~ ~ ~ ~ ~XIXUXU.G ~ ~ ~ ~ ~ ~ ~ ~ ~.R.pXO c",
" 7 B.:Xp ~ ~ ~ ~.!Xr.a.aXJoX ~XIXUXUXY ( ( ( ( ( ( ( # ~ ZXO.fX}",
"XG.:Xj.- ~ ~ ~ ~.YXW.dX& s.y ~XIXUXU poxoxoxoxoxox h - ~ X.f u.K",
".sXj $oO ~ ~ ~ ~ S.bX& soloq ~XIXUXUXUXUXUXUXUXUXUXUXb ~o% u doG",
".h $ *Xp ~ ~ ~ ~ Son.xolX3oq ~ ^XxXxXxXxXxXxXxXxXxXxXw ~ X dozoG",
".h *.8 C ~ ~ ~ ~XfX'oloboNoq ~ ~ ~ ~ ~ ~ ~ ~ ~ ~ ~ ~ ~ ~.3oz.VX}",
".s.8 <.D #Xv & & K.(oboNoV m , , , ,o<o<o<.{.{.{o2o2.e.eo .V.S m",
".g <o7XZouXL '.xX>oboNoVX9.=Xd +Xc.6 >Xm 3 !.pXP.f u doz.V.SX[.*",
".j.rXZou q '.xX>.BoNoVX9.=Xd +Xc.6 >Xm 3 !.pXP.f u doz.V.SX[oD.*",
".jXZouo8XIod TX(o5XVXM.= Q Po0.6X( A.)XS.p {X1ofX0 ..u /X)oDoo.*",
"XTou qo#.To$ ] _.~o*o,Xd ) & w > W.@._ %XP. X.o*XB.woc.# 2oo.,Xe",
"oa q 'Xu.$   dopo.o..7XgX^X^.MXmo9oA.@ A.f fo*.'XBo4.n lo,., FXe",
"oa '.x.J >.[.L.4X5oC 5Xco&XAo= 3 9 [oj Y u.WoyXXX[X| 4o9 R FXl.I",
"oa.x |.BoN.HX9.=XdXgXc.6 >Xm 3 !.pXP.f u.coz.V.SX[oDooXu FXl Y.I",
"X* |.BoN.HX9.=XdXgXc = >Xm 3 !.pXPXP u.coz.V.SX[oDoooo FXl Y.(o+",
"X@ uoN.HX9.=XdXgXc = >Xm 3 !.pXPXP u.coz.V.SX[oDoooo FXl Y.(Xioh",
"oHXHX+.kX+X+.kX+X+os.l t.z.zogog.oX~ }X- k k.m.movov.+X_.Z.F `oH"
};
